<?xml version="1.0" encoding="iso-8859-1"?>
<!-- Generator: Adobe Illustrator 19.0.0, SVG Export Plug-In . SVG Version: 6.00 Build 0)  -->
<svg version="1.1" id="Capa_1" xmlns="http://www.w3.org/2000/svg" xmlns:xlink="http://www.w3.org/1999/xlink" x="0px" y="0px"
	 viewBox="0 0 378.609 378.609" style="enable-background:new 0 0 378.609 378.609;" xml:space="preserve">
<path id="XMLID_243_" d="M334.929,120.405l-53.75,19.197v-8.033c20.917-12.274,35-34.989,35-60.944
	C316.179,31.682,284.497,0,245.554,0c-29.744,0-55.234,18.492-65.625,44.576C169.538,18.492,144.049,0,114.304,0
	C75.362,0,43.679,31.682,43.679,70.625c0,25.955,14.083,48.669,35,60.944V255h36.815l37.143,40l-52.363,56.391l29.312,27.218
	l50.344-54.217l50.344,54.217l29.312-27.218L207.222,295l37.143-40h36.815v-17.102l53.75,19.197V120.405z M170.176,113.75
	c4.001-5.172,7.297-10.91,9.753-17.076c2.456,6.165,5.752,11.903,9.753,17.076H170.176z M179.929,265.608L170.079,255h19.701
	L179.929,265.608z"/>
<g>
</g>
<g>
</g>
<g>
</g>
<g>
</g>
<g>
</g>
<g>
</g>
<g>
</g>
<g>
</g>
<g>
</g>
<g>
</g>
<g>
</g>
<g>
</g>
<g>
</g>
<g>
</g>
<g>
</g>
</svg>
